<?xml version="1.0" encoding="UTF-8" standalone="no"?><!DOCTYPE svg PUBLIC "-//W3C//DTD SVG 1.1//EN" "http://www.w3.org/Graphics/SVG/1.1/DTD/svg11.dtd"><svg width="100%" height="100%" viewBox="0 0 1000 1000" version="1.1" xmlns="http://www.w3.org/2000/svg" xmlns:xlink="http://www.w3.org/1999/xlink" xml:space="preserve" xmlns:serif="http://www.serif.com/" style="fill-rule:evenodd;clip-rule:evenodd;stroke-linejoin:round;stroke-miterlimit:2;"><g id="logo"><path d="M106.212,556.304c332.13,255.1 83.537,191.124 788.403,-277.43l0,252.715l-0.077,0c-4.21,214.292 -179.494,386.97 -394.79,386.97c-206.964,0 -376.952,-159.571 -393.536,-362.255" style="fill:url(#_Radial1);"/><path d="M894.615,278.874l0,-197.433c-696.354,462.896 -426.262,710.306 -775.214,437.812c-2.649,-2.067 -6.253,-2.419 -9.252,-0.903c-2.999,1.515 -4.853,4.625 -4.761,7.983c0.376,13.69 0.824,29.998 0.824,29.998c334.109,256.288 82.62,191.707 788.403,-277.457" style="fill:#fff;"/><path d="M894.615,278.874l0,-197.433c-696.354,462.896 -426.262,710.306 -775.214,437.812c-2.649,-2.067 -6.253,-2.419 -9.252,-0.903c-2.999,1.515 -4.853,4.625 -4.761,7.983c0.376,13.69 0.824,29.998 0.824,29.998c334.109,256.288 82.62,191.707 788.403,-277.457"/></g><defs><radialGradient id="_Radial1" cx="0" cy="0" r="1" gradientUnits="userSpaceOnUse" gradientTransform="matrix(576.506,-622.756,505.284,467.758,318.109,704.197)"><stop offset="0" style="stop-color:#60f;stop-opacity:1"/><stop offset="0.54" style="stop-color:#1db6d1;stop-opacity:1"/><stop offset="1" style="stop-color:#00ffbf;stop-opacity:1"/></radialGradient></defs></svg>